HIERARCHY
ROOT Hips
{
	OFFSET 0.000000 -0.057701 9.058100
	CHANNELS 6 Xposition Yposition Zposition Xrotation Yrotation Zrotation
	JOINT LHipJoint
	{
		OFFSET 0.000000 0.000000 0.000000
		CHANNELS 6 Xposition Yposition Zposition Xrotation Yrotation Zrotation
		JOINT LeftUpLeg
		{
			OFFSET 1.094800 0.103400 -0.195600
			CHANNELS 3 Xrotation Yrotation Zrotation
			JOINT LeftLeg
			{
				OFFSET 0.369600 -0.314299 -3.859600
				CHANNELS 3 Xrotation Yrotation Zrotation
				JOINT LeftFoot
				{
					OFFSET 0.340000 0.213401 -4.323900
					CHANNELS 3 Xrotation Yrotation Zrotation
					JOINT LeftToeBase
					{
						OFFSET 0.129600 -1.361300 -0.424400
						CHANNELS 3 Xrotation Yrotation Zrotation
						End Site
						{
							OFFSET 0.029167 -0.306363 -0.095512
						}
					}
				}
			}
		}
	}
	JOINT LowerBack
	{
		OFFSET 0.000000 0.334500 0.826200
		CHANNELS 3 Xrotation Yrotation Zrotation
		JOINT Spine
		{
			OFFSET 0.000000 0.077000 1.236199
			CHANNELS 3 Xrotation Yrotation Zrotation
			JOINT Spine1
			{
				OFFSET 0.000000 0.138400 1.326700
				CHANNELS 3 Xrotation Yrotation Zrotation
				JOINT LeftShoulder
				{
					OFFSET 0.225800 -0.730900 1.222000
					CHANNELS 6 Xposition Yposition Zposition Xrotation Yrotation Zrotation
					JOINT LeftArm
					{
						OFFSET 1.570700 0.099800 -0.256601
						CHANNELS 3 Xrotation Yrotation Zrotation
						JOINT LeftForeArm
						{
							OFFSET 1.602600 -0.073200 -1.757797
							CHANNELS 3 Xrotation Yrotation Zrotation
							JOINT LeftHand
							{
								OFFSET 1.215700 -1.701500 -1.164300
								CHANNELS 3 Xrotation Yrotation Zrotation
								JOINT LThumb
								{
									OFFSET 0.010001 -0.439400 -0.061702
									CHANNELS 6 Xposition Yposition Zposition Xrotation Yrotation Zrotation
									End Site
									{
										OFFSET 0.007261 -0.319017 -0.044797
									}
								}
								JOINT LeftFingerBase
								{
									OFFSET 0.105299 -0.266100 -0.148103
									CHANNELS 3 Xrotation Yrotation Zrotation
									JOINT LeftHandFinger1
									{
										OFFSET 0.170101 -0.684300 -0.222499
										CHANNELS 3 Xrotation Yrotation Zrotation
										End Site
										{
											OFFSET 0.074130 -0.298218 -0.096966
										}
									}
								}
							}
						}
					}
				}
				JOINT Neck
				{
					OFFSET 0.000000 -0.589700 1.970500
					CHANNELS 3 Xrotation Yrotation Zrotation
					JOINT Neck1
					{
						OFFSET 0.000000 -0.159700 0.448900
						CHANNELS 3 Xrotation Yrotation Zrotation
						JOINT Head
						{
							OFFSET 0.000000 -0.159700 0.448901
							CHANNELS 3 Xrotation Yrotation Zrotation
							End Site
							{
								OFFSET 0.000000 -0.108004 0.303590
							}
						}
					}
				}
				JOINT RightShoulder
				{
					OFFSET -0.225800 -0.730900 1.222000
					CHANNELS 6 Xposition Yposition Zposition Xrotation Yrotation Zrotation
					JOINT RightArm
					{
						OFFSET -1.570700 0.099800 -0.256601
						CHANNELS 3 Xrotation Yrotation Zrotation
						JOINT RightForeArm
						{
							OFFSET -1.602600 -0.073200 -1.757797
							CHANNELS 3 Xrotation Yrotation Zrotation
							JOINT RightHand
							{
								OFFSET -1.215700 -1.701500 -1.164300
								CHANNELS 3 Xrotation Yrotation Zrotation
								JOINT RThumb
								{
									OFFSET -0.010001 -0.439400 -0.061702
									CHANNELS 6 Xposition Yposition Zposition Xrotation Yrotation Zrotation
									End Site
									{
										OFFSET -0.007261 -0.319017 -0.044797
									}
								}
								JOINT RightFingerBase
								{
									OFFSET -0.105299 -0.266100 -0.148103
									CHANNELS 3 Xrotation Yrotation Zrotation
									JOINT RightHandFinger1
									{
										OFFSET -0.170101 -0.684300 -0.222499
										CHANNELS 3 Xrotation Yrotation Zrotation
										End Site
										{
											OFFSET -0.074130 -0.298218 -0.096966
										}
									}
								}
							}
						}
					}
				}
			}
		}
	}
	JOINT RHipJoint
	{
		OFFSET 0.000000 0.000000 0.000000
		CHANNELS 6 Xposition Yposition Zposition Xrotation Yrotation Zrotation
		JOINT RightUpLeg
		{
			OFFSET -1.094800 0.103400 -0.195600
			CHANNELS 3 Xrotation Yrotation Zrotation
			JOINT RightLeg
			{
				OFFSET -0.369600 -0.314299 -3.859600
				CHANNELS 3 Xrotation Yrotation Zrotation
				JOINT RightFoot
				{
					OFFSET -0.340000 0.213401 -4.323900
					CHANNELS 3 Xrotation Yrotation Zrotation
					JOINT RightToeBase
					{
						OFFSET -0.129600 -1.361300 -0.424400
						CHANNELS 3 Xrotation Yrotation Zrotation
						End Site
						{
							OFFSET -0.029167 -0.306363 -0.095512
						}
					}
				}
			}
		}
	}
}
MOTION
Frames: 5
Frame Time: 0.041667
-5.977348 -16.276363 9.113538 -0.710682 -0.295953 -187.795491 -0.000000 0.000001 -0.000001 -0.000001 -0.000001 -0.000001 4.676825 5.434351 -0.443885 -7.412377 -0.917810 -0.918991 0.000000 -0.000000 0.000004 -0.000000 0.000000 -0.000004 -8.618452 -0.028299 -3.434412 0.000001 -0.000000 0.000000 -1.771891 1.464676 -1.101594 0.225800 -0.730901 1.221999 -0.378055 -8.984431 -2.554843 -8.784685 25.403237 -43.323466 -65.089531 -16.509131 -58.205779 19.437619 12.751169 -2.078156 0.009999 -0.439399 -0.061703 -0.000004 -0.000003 0.000002 -0.000000 0.000005 0.000004 -0.000002 -0.000005 -0.000006 23.655785 5.346461 -20.736596 10.752122 -11.769295 -16.814263 -0.000000 -0.000001 0.000002 -0.225800 -0.730900 1.221999 -1.940406 11.270583 8.271035 2.134614 -19.266277 49.396792 -72.380006 8.112439 41.651101 -34.794930 25.944182 3.379710 -0.010002 -0.439401 -0.061702 0.000001 0.000003 0.000000 0.000000 0.000000 -0.000004 -0.000002 -0.000003 -0.000003 -0.000000 0.000001 -0.000002 0.000000 0.000001 0.000000 4.677381 -5.434989 0.443963 -7.412380 0.917811 0.918987 -0.000000 0.000001 -0.000003 0.000002 -0.000001 0.000001 
-5.979342 -16.281668 9.113808 -0.715335 -0.263556 -187.662398 -0.000000 -0.000001 0.000001 0.000001 -0.000001 -0.000001 4.676827 5.434353 -0.443885 -7.412378 -0.917810 -0.918984 0.000002 -0.000001 0.000003 -0.000002 -0.000000 -0.000003 -8.635895 -0.033697 -3.434293 0.000001 -0.000000 0.000001 -1.780029 1.463868 -1.096908 0.225800 -0.730900 1.221999 -0.378177 -8.980569 -2.555216 -8.745056 25.400483 -43.378347 -65.162839 -16.598456 -58.283295 19.672007 12.912883 -2.269423 0.010001 -0.439399 -0.061702 -0.000004 0.000000 -0.000002 -0.000004 0.000002 0.000002 0.000001 0.000000 -0.000001 23.660972 5.392086 -20.791733 10.764407 -11.774210 -16.834792 0.000002 -0.000001 0.000002 -0.225800 -0.730901 1.222002 -1.957120 11.275678 8.283708 2.129353 -19.264829 49.404739 -72.380006 8.112439 41.651098 -34.795012 25.943813 3.379340 -0.010002 -0.439403 -0.061702 0.000001 0.000000 -0.000003 0.000002 -0.000002 -0.000003 0.000001 -0.000000 0.000001 -0.000000 -0.000001 0.000001 0.000002 0.000001 0.000001 4.677386 -5.434995 0.443966 -7.412379 0.917811 0.918991 -0.000002 0.000002 -0.000001 -0.000002 -0.000001 0.000001 
-5.981335 -16.286972 9.114080 -0.720069 -0.231169 -187.529278 0.000000 0.000000 -0.000000 0.000002 -0.000001 -0.000000 4.676829 5.434357 -0.443886 -7.412379 -0.917810 -0.918987 0.000002 -0.000003 0.000008 -0.000007 -0.000001 -0.000003 -8.653330 -0.039095 -3.434175 0.000000 0.000000 0.000001 -1.748500 1.462689 -1.092733 0.225800 -0.730895 1.222000 -0.378296 -8.976708 -2.555588 -8.783691 25.331901 -43.340863 -65.131318 -16.540275 -58.249697 19.736907 12.994962 -2.361622 0.010002 -0.439401 -0.061701 -0.000003 0.000005 0.000002 -0.000002 0.000003 0.000002 0.000003 -0.000002 -0.000001 23.040520 5.043859 -20.881920 11.536881 -10.643729 -17.301530 -0.000002 0.000001 0.000001 -0.225801 -0.730895 1.222003 -1.973832 11.280772 8.296378 2.124095 -19.263374 49.412696 -72.380006 8.112442 41.651101 -34.795087 25.943446 3.378968 -0.010002 -0.439401 -0.061702 -0.000001 -0.000001 -0.000002 -0.000001 -0.000002 -0.000004 -0.000003 0.000000 0.000007 0.000000 0.000000 -0.000000 0.000001 0.000001 0.000001 4.677394 -5.435005 0.443967 -7.412379 0.917811 0.918987 -0.000000 0.000001 0.000001 -0.000005 0.000000 0.000002 
-5.983327 -16.289268 9.113132 -0.724879 -0.198794 -187.396171 -0.000000 -0.000000 -0.000001 0.000001 -0.000001 -0.000000 4.676832 5.434358 -0.443886 -7.412379 -0.917810 -0.918991 0.000002 -0.000001 0.000004 -0.000005 0.000000 -0.000002 -8.670770 -0.044493 -3.434058 0.000002 0.000000 0.000000 -1.717144 1.429556 -1.098647 0.225801 -0.730900 1.222000 -0.399318 -8.996111 -2.552631 -8.759555 25.385832 -43.303632 -65.409751 -17.324179 -58.549898 20.110005 13.313612 -2.953057 0.010000 -0.439400 -0.061701 0.000000 -0.000002 0.000001 0.000001 0.000001 0.000004 -0.000000 -0.000004 -0.000003 22.988267 5.053231 -20.877860 11.579474 -10.618112 -17.298286 -0.000002 -0.000001 -0.000001 -0.225800 -0.730900 1.221999 -1.990548 11.285860 8.309051 2.118836 -19.261933 49.420653 -72.380000 8.112439 41.651101 -34.795166 25.943087 3.378597 -0.010001 -0.439400 -0.061701 -0.000001 0.000002 -0.000002 -0.000001 -0.000000 -0.000003 -0.000003 0.000000 -0.000002 -0.000000 -0.000000 -0.000001 0.000001 -0.000000 0.000000 4.677400 -5.435010 0.443966 -7.412379 0.917811 0.918986 0.000002 0.000001 -0.000001 -0.000002 -0.000002 0.000000 
-5.985321 -16.291563 9.112185 -0.729762 -0.166431 -187.263064 0.000000 -0.000003 -0.000002 0.000002 0.000000 -0.000000 4.676834 5.434362 -0.443887 -7.412377 -0.917809 -0.918989 0.000000 -0.000001 0.000005 -0.000007 0.000001 -0.000002 -8.688206 -0.049891 -3.433942 0.000001 -0.000000 -0.000001 -1.685799 1.396418 -1.104542 0.225801 -0.730903 1.221998 -0.420338 -9.015513 -2.549681 -8.735431 25.439777 -43.266404 -65.463354 -17.411202 -58.606875 20.117281 13.327339 -2.873476 0.010001 -0.439400 -0.061702 -0.000001 -0.000001 0.000002 0.000000 0.000000 0.000004 0.000002 -0.000003 -0.000001 22.999668 5.050331 -20.874221 11.622069 -10.592496 -17.295058 0.000003 -0.000000 -0.000002 -0.225800 -0.730900 1.221999 -1.955540 11.266791 8.295258 2.113584 -19.260486 49.428604 -72.380000 8.112443 41.651101 -34.795244 25.942718 3.378226 -0.009997 -0.439398 -0.061700 -0.000001 -0.000001 0.000003 -0.000005 -0.000004 0.000003 -0.000000 0.000006 0.000002 0.000000 -0.000003 -0.000001 0.000003 0.000001 0.000002 4.677407 -5.435020 0.443966 -7.412379 0.917811 0.918989 0.000002 0.000002 -0.000003 0.000002 -0.000000 0.000001 
